<svg width="1000" height="1000" viewBox="0 0 1000 1000"
  xmlns="http://www.w3.org/2000/svg">
  <defs/>
  <path fill="#d83f87" transform="matrix(0.9546393352009098 0 0 0.9546393352009098 0.36288531839271876 -147.74393105306837)" d="M 623.14727529441 502.92214670868 C 536.74727529441 502.92214670868 458.04727529441 535.92214670868 398.74727529441 590.02214670868 C 339.44727529441 536.02214670868 260.64727529441 502.92214670868 174.34727529441 502.92214670868 L 156.74727529441 502.92214670868 L 156.74727529441 854.12214670868 L 223.14727529441 854.12214670868 L 236.74727529441 854.12214670868 L 324.54727529441 854.12214670868 L 324.54727529441 836.52214670868 C 324.54727529441 801.12214670868 330.84727529441 767.12214670868 342.14727529441 735.62214670868 C 363.04727529441 772.22214670868 377.04727529441 808.32214670868 377.04727529441 853.02214670868 L 385.14727529441 853.02214670868 L 412.14727529441 853.02214670868 L 420.24727529441 853.02214670868 C 420.24727529441 806.22214670868 430.94727529441 768.62214670868 453.44727529441 731.02214670868 C 465.84727529441 763.82214670868 472.74727529441 799.32214670868 472.74727529441 836.42214670868 L 472.74727529441 854.12214670868 L 533.94727529441 854.12214670868 L 551.54727529441 854.12214670868 L 640.74727529441 854.12214670868 L 640.74727529441 502.92214670868 L 623.14727529441 502.92214670868 Z M 605.64727529441 538.52214670868 L 605.64727529441 581.92214670868 C 593.14727529441 584.62214670868 580.94727529441 588.22214670868 569.24727529441 592.52214670868 L 569.24727529441 542.92214670868 C 581.14727529441 540.72214670868 593.24727529441 539.22214670868 605.64727529441 538.52214670868 Z M 534.04727529441 608.12214670868 C 506.24727529441 622.82214670868 481.34727529441 642.02214670868 460.04727529441 664.62214670868 C 449.34727529441 646.92214670868 437.04727529441 630.32214670868 423.34727529441 614.92214670868 C 454.84727529441 586.52214670868 492.54727529441 564.62214670868 533.94727529441 551.62214670868 L 533.94727529441 608.12214670868 Z M 258.24727529441 607.62214670868 L 258.24727529441 550.12214670868 C 301.74727529441 562.92214670868 341.24727529441 585.32214670868 374.04727529441 614.92214670868 C 359.64727529441 631.12214670868 346.74727529441 648.62214670868 335.64727529441 667.42214670868 C 313.64727529441 643.32214670868 287.54727529441 623.02214670868 258.24727529441 607.62214670868 Z M 223.14727529441 542.02214670868 L 223.14727529441 592.12214670868 C 213.04727529441 588.42214670868 202.64727529441 585.32214670868 191.94727529441 582.82214670868 L 191.94727529441 538.52214670868 C 202.44727529441 539.12214670868 212.84727529441 540.32214670868 223.14727529441 542.02214670868 Z M 191.84727529441 819.02214670868 L 191.84727529441 619.02214670868 C 202.54727529441 621.92214670868 213.04727529441 625.52214670868 223.04727529441 629.82214670868 L 223.04727529441 819.02214670868 L 191.84727529441 819.02214670868 Z M 289.94727529441 819.02214670868 L 258.24727529441 819.02214670868 L 258.24727529441 648.22214670868 C 281.14727529441 662.52214670868 301.34727529441 680.42214670868 318.34727529441 701.12214670868 C 302.04727529441 737.42214670868 292.04727529441 777.22214670868 289.94727529441 819.02214670868 Z M 396.64727529441 772.62214670868 C 387.94727529441 745.52214670868 375.34727529441 720.02214670868 359.34727529441 697.02214670868 C 370.24727529441 676.42214670868 383.54727529441 657.32214670868 398.74727529441 639.92214670868 C 413.14727529441 656.32214670868 425.74727529441 674.32214670868 436.34727529441 693.62214670868 C 419.14727529441 717.42214670868 405.74727529441 744.02214670868 396.64727529441 772.62214670868 Z M 507.54727529441 819.02214670868 C 505.34727529441 775.92214670868 494.74727529441 734.92214670868 477.64727529441 697.62214670868 C 493.84727529441 678.62214670868 512.84727529441 662.02214670868 534.04727529441 648.62214670868 L 534.04727529441 819.02214670868 L 507.54727529441 819.02214670868 Z M 569.14727529441 819.02214670868 L 569.14727529441 630.22214670868 C 580.84727529441 625.22214670868 592.94727529441 621.02214670868 605.54727529441 617.82214670868 L 605.54727529441 818.92214670868 L 569.14727529441 818.92214670868 Z"/>
  <path id="text" fill="#7c3aed" transform="matrix(3.4658823308935056 0 0 3.4658823308935056 466.74209712295993 120.76325429525775)" d="M 52.97080813571 134.87309645269 L 52.97080813571 83.91997145269 L 44.25205813571 80.77934645269 L 45.09580813571 76.98247145269 L 73.83018313571 76.98247145269 L 73.08018313571 81.01372145269 L 65.15830813571 84.01372145269 L 65.15830813571 134.54497145269 L 74.62705813571 137.63872145269 L 73.68955813571 141.85747145269 L 43.92393313571 141.85747145269 L 44.67393313571 137.87309645269 L 52.97080813571 134.87309645269 Z M 101.72080813571 134.73247145269 L 110.58018313571 138.06059645269 L 109.73643313571 141.85747145269 L 87.79893313571 141.85747145269 L 88.50205813571 138.24809645269 L 68.34580813571 108.95122145269 L 89.20518313571 83.82622145269 L 81.33018313571 80.68559645269 L 82.22080813571 76.98247145269 L 109.64268313571 76.98247145269 L 108.79893313571 81.06059645269 L 100.78330813571 83.87309645269 L 80.86143313571 106.65434645269 L 101.72080813571 134.73247145269 Z"/>
</svg>