<?xml version="1.0" encoding="UTF-8"?>
<svg version="1.1" xmlns="http://www.w3.org/2000/svg" width="512" height="512">
<path d="M0 0 C16.83 0 33.66 0 51 0 C51 0.66 51 1.32 51 2 C51.74121094 1.96519531 52.48242188 1.93039063 53.24609375 1.89453125 C62.8093893 1.64871827 71.65411942 3.11963121 81 5 C81 5.66 81 6.32 81 7 C82.98 7 84.96 7 87 7 C87 7.99 87 8.98 87 10 C92.445 10.495 92.445 10.495 98 11 C98 11.66 98 12.32 98 13 C99.65 13 101.3 13 103 13 C103 13.66 103 14.32 103 15 C104.216875 15.12375 105.43375 15.2475 106.6875 15.375 C110.06479059 15.78891306 112.89756695 16.54573451 116 18 C116 18.66 116 19.32 116 20 C117.32 20.33 118.64 20.66 120 21 C120 21.66 120 22.32 120 23 C122.31 23.33 124.62 23.66 127 24 C127 24.66 127 25.32 127 26 C127.99 26 128.98 26 130 26 C130 26.66 130 27.32 130 28 C130.928125 28.103125 131.85625 28.20625 132.8125 28.3125 C136.18404102 29.03969512 136.8260045 29.52955057 139 32 C141.09989652 33.17574711 141.09989652 33.17574711 143 34 C143 34.66 143 35.32 143 36 C144.65 36.33 146.3 36.66 148 37 C148 37.66 148 38.32 148 39 C148.66 39 149.32 39 150 39 C151 40 152 41 153 42 C155.09989652 43.17574711 155.09989652 43.17574711 157 44 C157 44.66 157 45.32 157 46 C157.66 46 158.32 46 159 46 C159 46.66 159 47.32 159 48 C159.66 48 160.32 48 161 48 C161 48.66 161 49.32 161 50 C161.99 50 162.98 50 164 50 C164 50.66 164 51.32 164 52 C164.66 52 165.32 52 166 52 C166 52.66 166 53.32 166 54 C166.8353125 54.3403125 166.8353125 54.3403125 167.6875 54.6875 C171.96311877 57.11420254 175.13916819 60.43250373 177 65 C177.66 65 178.32 65 179 65 C179 65.66 179 66.32 179 67 C179.99 67.33 180.98 67.66 182 68 C182.6875 70.0625 182.6875 70.0625 183 72 C183.66 72 184.32 72 185 72 C185 72.66 185 73.32 185 74 C185.66 74 186.32 74 187 74 C187 74.66 187 75.32 187 76 C187.66 76 188.32 76 189 76 C189.33 77.65 189.66 79.3 190 81 C190.66 81 191.32 81 192 81 C192 81.66 192 82.32 192 83 C192.99 83.33 193.98 83.66 195 84 C195.33 85.65 195.66 87.3 196 89 C196.66 89 197.32 89 198 89 C198 89.66 198 90.32 198 91 C198.66 91 199.32 91 200 91 C202.43160605 94.36683915 203 95.73350364 203 100 C203.66 100 204.32 100 205 100 C205 101.32 205 102.64 205 104 C205.99 104 206.98 104 208 104 C208.959938 106.06175364 209.91788424 108.12443469 210.875 110.1875 C211.40867187 111.33605469 211.94234375 112.48460937 212.4921875 113.66796875 C216 121.41968912 216 121.41968912 216 126 C216.66 126 217.32 126 218 126 C218 127.32 218 128.64 218 130 C218.66 130 219.32 130 220 130 C221.42258812 133.82320557 222.24042276 136.91281305 222 141 C222.66 141 223.32 141 224 141 C225.71121754 145.52150975 226.35223612 149.55617153 226.625 154.375 C226.73714844 156.24285156 226.73714844 156.24285156 226.8515625 158.1484375 C226.90054687 159.08945313 226.94953125 160.03046875 227 161 C227.66 161 228.32 161 229 161 C229.06058594 161.63808594 229.12117188 162.27617187 229.18359375 162.93359375 C229.30927734 164.17302734 229.30927734 164.17302734 229.4375 165.4375 C229.51871094 166.26121094 229.59992188 167.08492187 229.68359375 167.93359375 C229.78930815 169.98662025 229.78930815 169.98662025 231 171 C236.30480744 194.25057473 234.95860222 218.69608572 231 242 C230.34 242 229.68 242 229 242 C229 244.97 229 247.94 229 251 C228.34 251 227.68 251 227 251 C227.0309375 252.7634375 227.0309375 252.7634375 227.0625 254.5625 C227.06947261 258.47413467 226.64250343 262.14497944 226 266 C225.34 266 224.68 266 224 266 C224 267.98 224 269.96 224 272 C223.34 272 222.68 272 222 272 C221.896875 273.175625 221.79375 274.35125 221.6875 275.5625 C221.17085042 279.82485903 219.8491639 283.14087534 218 287 C217.34 287 216.68 287 216 287 C215.83564453 287.85271484 215.83564453 287.85271484 215.66796875 288.72265625 C214.62061834 293.82316758 213.20728247 298.284442 211 303 C210.34 303 209.68 303 209 303 C208.34 304.98 207.68 306.96 207 309 C206.34 309 205.68 309 205 309 C205 310.32 205 311.64 205 313 C204.34 313 203.68 313 203 313 C202.9175 313.70125 202.835 314.4025 202.75 315.125 C201.81990995 318.6903452 200.23313631 321.09015572 198 324 C197.34 324 196.68 324 196 324 C195.67 325.65 195.34 327.3 195 329 C194.01 329 193.02 329 192 329 C192 329.99 192 330.98 192 332 C191.34 332 190.68 332 190 332 C189.9175 332.5775 189.835 333.155 189.75 333.75 C188.78202213 336.6539336 187.31305716 338.03740604 185 340 C184.34 340 183.68 340 183 340 C182.71125 340.763125 182.4225 341.52625 182.125 342.3125 C181 345 181 345 179 348 C178.34 348 177.68 348 177 348 C176.731875 348.639375 176.46375 349.27875 176.1875 349.9375 C175 352 175 352 172 353 C172 353.66 172 354.32 172 355 C171.34 355 170.68 355 170 355 C169.34 356.32 168.68 357.64 168 359 C167.34 359 166.68 359 166 359 C166 359.66 166 360.32 166 361 C165.34 361 164.68 361 164 361 C164 361.66 164 362.32 164 363 C163.01 363 162.02 363 161 363 C161 363.66 161 364.32 161 365 C157.53846154 368 157.53846154 368 155 368 C155 368.66 155 369.32 155 370 C154.360625 370.28875 153.72125 370.5775 153.0625 370.875 C150.84793921 371.82823451 150.84793921 371.82823451 150 374 C149.34 374 148.68 374 148 374 C148 374.66 148 375.32 148 376 C142.375 379 142.375 379 139 379 C139 379.66 139 380.32 139 381 C138.34 381 137.68 381 137 381 C137 381.66 137 382.32 137 383 C135.71086513 383.67154933 134.41859796 384.33708859 133.125 385 C132.40570313 385.37125 131.68640625 385.7425 130.9453125 386.125 C129 387 129 387 127 387 C127 387.66 127 388.32 127 389 C124.69 389.33 122.38 389.66 120 390 C120 390.66 120 391.32 120 392 C118.68 392 117.36 392 116 392 C116 392.66 116 393.32 116 394 C114.58774074 394.67595315 113.16997095 395.34040059 111.75 396 C110.96109375 396.37125 110.1721875 396.7425 109.359375 397.125 C107 398 107 398 103 398 C103 398.66 103 399.32 103 400 C101.35 400 99.7 400 98 400 C98 400.66 98 401.32 98 402 C94.37 402.33 90.74 402.66 87 403 C87 403.66 87 404.32 87 405 C82.66720517 406.58516884 78.56156234 407.37390321 74 408 C73.67 408.33 73.34 408.66 73 409 C71.48071962 409.07179964 69.95832518 409.08392007 68.4375 409.0625 C67.61121094 409.05347656 66.78492188 409.04445313 65.93359375 409.03515625 C65.29550781 409.02355469 64.65742188 409.01195312 64 409 C64 409.66 64 410.32 64 411 C59.71 411 55.42 411 51 411 C51 411.66 51 412.32 51 413 C43.89755001 413.02526787 36.79511152 413.04283201 29.69262695 413.05493164 C27.27432828 413.05997349 24.85603267 413.06680678 22.43774414 413.07543945 C18.97020717 413.08751157 15.50271034 413.09322963 12.03515625 413.09765625 C10.94662857 413.10281754 9.85810089 413.10797882 8.73658752 413.11329651 C7.23514442 413.11340981 7.23514442 413.11340981 5.70336914 413.11352539 C4.37433311 413.11685631 4.37433311 413.11685631 3.01844788 413.12025452 C1 413 1 413 0 412 C-1.84891946 411.76636119 -3.70488031 411.58696365 -5.5625 411.4375 C-6.57441406 411.35371094 -7.58632812 411.26992188 -8.62890625 411.18359375 C-9.41136719 411.12300781 -10.19382813 411.06242187 -11 411 C-11 410.34 -11 409.68 -11 409 C-11.556875 409.02320313 -12.11375 409.04640625 -12.6875 409.0703125 C-18.17609015 409.20011024 -22.7293351 408.53328434 -28 407 C-28 406.34 -28 405.68 -28 405 C-30.31 405 -32.62 405 -35 405 C-35 404.34 -35 403.68 -35 403 C-38.63 402.67 -42.26 402.34 -46 402 C-46 401.34 -46 400.68 -46 400 C-47.65 400 -49.3 400 -51 400 C-51 399.34 -51 398.68 -51 398 C-52.1446875 398.061875 -52.1446875 398.061875 -53.3125 398.125 C-56 398 -56 398 -59 396 C-59 395.34 -59 394.68 -59 394 C-60.32 394 -61.64 394 -63 394 C-63 393.34 -63 392.68 -63 392 C-64.32 392 -65.64 392 -67 392 C-67 391.34 -67 390.68 -67 390 C-69.31 389.67 -71.62 389.34 -74 389 C-74 388.34 -74 387.68 -74 387 C-74.556875 386.896875 -75.11375 386.79375 -75.6875 386.6875 C-78.45499638 385.86473081 -80.55633974 384.52728766 -83 383 C-84.32608822 382.31903578 -85.65686601 381.64669414 -87 381 C-87 380.34 -87 379.68 -87 379 C-87.94875 378.690625 -88.8975 378.38125 -89.875 378.0625 C-93 377 -93 377 -95 376 C-95 375.34 -95 374.68 -95 374 C-95.99 374 -96.98 374 -98 374 C-98 373.34 -98 372.68 -98 372 C-99.32 371.34 -100.64 370.68 -102 370 C-102 369.34 -102 368.68 -102 368 C-102.598125 367.87625 -103.19625 367.7525 -103.8125 367.625 C-106 367 -106 367 -109 365 C-109 364.34 -109 363.68 -109 363 C-109.66 363 -110.32 363 -111 363 C-111 362.34 -111 361.68 -111 361 C-111.66 361 -112.32 361 -113 361 C-113 360.34 -113 359.68 -113 359 C-114.32 358.34 -115.64 357.68 -117 357 C-117 356.34 -117 355.68 -117 355 C-117.66 355 -118.32 355 -119 355 C-119 354.34 -119 353.68 -119 353 C-119.99 352.67 -120.98 352.34 -122 352 C-122 351.34 -122 350.68 -122 350 C-122.66 350 -123.32 350 -124 350 C-124 349.34 -124 348.68 -124 348 C-124.66 348 -125.32 348 -126 348 C-128.125 346.125 -128.125 346.125 -130 344 C-130 343.34 -130 342.68 -130 342 C-130.66 342 -131.32 342 -132 342 C-132 341.34 -132 340.68 -132 340 C-132.66 340 -133.32 340 -134 340 C-134.33 338.35 -134.66 336.7 -135 335 C-135.66 335 -136.32 335 -137 335 C-137 334.34 -137 333.68 -137 333 C-137.66 333 -138.32 333 -139 333 C-139.33 331.02 -139.66 329.04 -140 327 C-140.763125 326.95875 -141.52625 326.9175 -142.3125 326.875 C-145 326 -145 326 -146.8125 323.1875 C-148 320 -148 320 -148 316 C-148.66 316 -149.32 316 -150 316 C-150 315.34 -150 314.68 -150 314 C-150.66 314 -151.32 314 -152 314 C-152.33 312.02 -152.66 310.04 -153 308 C-153.99 307.67 -154.98 307.34 -156 307 C-157.38671875 305.07421875 -157.38671875 305.07421875 -158.6875 302.6875 C-159.12449219 301.90761719 -159.56148437 301.12773437 -160.01171875 300.32421875 C-161 298 -161 298 -161 294 C-161.66 294 -162.32 294 -163 294 C-163 292.35 -163 290.7 -163 289 C-163.66 289 -164.32 289 -165 289 C-165.33 285.7 -165.66 282.4 -166 279 C-166.99 279 -167.98 279 -169 279 C-171.10575375 273.47239641 -172.37851209 268.93002267 -172 263 C-172.66 263 -173.32 263 -174 263 C-174.144375 261.865625 -174.28875 260.73125 -174.4375 259.5625 C-174.61171478 256.19222799 -174.61171478 256.19222799 -176 255 C-179.87543515 240.01498409 -180.32118984 225.20432105 -180.26074219 209.81225586 C-180.25003111 206.57191203 -180.26068706 203.33212384 -180.2734375 200.09179688 C-180.28087696 188.64498701 -180.1715746 177.2798998 -178 166 C-177.67 165.67 -177.34 165.34 -177 165 C-176.76924918 163.65252916 -176.58846937 162.29622435 -176.4375 160.9375 C-176.293125 159.638125 -176.14875 158.33875 -176 157 C-175.34 157 -174.68 157 -174 157 C-174 154.69 -174 152.38 -174 150 C-173.34 150 -172.68 150 -172 150 C-171.67 146.04 -171.34 142.08 -171 138 C-170.34 138 -169.68 138 -169 138 C-169 136.35 -169 134.7 -169 133 C-168.01 133 -167.02 133 -166 133 C-165.67 130.03 -165.34 127.06 -165 124 C-164.34 124 -163.68 124 -163 124 C-163.06832031 123.31421875 -163.13664062 122.6284375 -163.20703125 121.921875 C-162.93484271 118.08042158 -161.52808705 115.61869348 -159.6875 112.25 C-159.07261719 111.10015625 -158.45773438 109.9503125 -157.82421875 108.765625 C-156 106 -156 106 -153 105 C-152.87625 104.071875 -152.7525 103.14375 -152.625 102.1875 C-152 99 -152 99 -150 96 C-149.34 96 -148.68 96 -148 96 C-147.9071875 94.948125 -147.9071875 94.948125 -147.8125 93.875 C-146.69219429 89.91084133 -144.83933474 87.97783887 -142 85 C-141.34 85 -140.68 85 -140 85 C-139.9175 84.21625 -139.835 83.4325 -139.75 82.625 C-139.5025 81.75875 -139.255 80.8925 -139 80 C-137.66666667 79.33333333 -136.33333333 78.66666667 -135 78 C-134.896875 77.2575 -134.79375 76.515 -134.6875 75.75 C-133.74154882 71.9661953 -131.60037414 70.66709385 -128.59375 68.33203125 C-126.86886375 67.07063984 -126.86886375 67.07063984 -126 65 C-125.34 65 -124.68 65 -124 65 C-124 64.34 -124 63.68 -124 63 C-123.34 63 -122.68 63 -122 63 C-121.67 61.68 -121.34 60.36 -121 59 C-120.34 59 -119.68 59 -119 59 C-119 58.34 -119 57.68 -119 57 C-118.34 57 -117.68 57 -117 57 C-117 56.34 -117 55.68 -117 55 C-115.68 54.67 -114.36 54.34 -113 54 C-113 53.34 -113 52.68 -113 52 C-112.34 52 -111.68 52 -111 52 C-111 51.34 -111 50.68 -111 50 C-110.34 50 -109.68 50 -109 50 C-108.67 49.01 -108.34 48.02 -108 47 C-107.34 47 -106.68 47 -106 47 C-105.67 46.01 -105.34 45.02 -105 44 C-100.66666667 41 -100.66666667 41 -98 41 C-98 40.34 -98 39.68 -98 39 C-97.01 39 -96.02 39 -95 39 C-95 38.34 -95 37.68 -95 37 C-94.195625 36.71125 -93.39125 36.4225 -92.5625 36.125 C-89.8673532 35.26737432 -89.8673532 35.26737432 -89 33 C-88.34 33 -87.68 33 -87 33 C-87 32.34 -87 31.68 -87 31 C-85.39967863 30.15930585 -83.79458829 29.32768495 -82.1875 28.5 C-81.29417969 28.0359375 -80.40085937 27.571875 -79.48046875 27.09375 C-77 26 -77 26 -74 26 C-74 25.34 -74 24.68 -74 24 C-71.69 23.67 -69.38 23.34 -67 23 C-67 22.01 -67 21.02 -67 20 C-65.68 20 -64.36 20 -63 20 C-63 19.34 -63 18.68 -63 18 C-61.68 18 -60.36 18 -59 18 C-59 17.34 -59 16.68 -59 16 C-56.36 15.67 -53.72 15.34 -51 15 C-51 14.34 -51 13.68 -51 13 C-49.35 13 -47.7 13 -46 13 C-46 12.34 -46 11.68 -46 11 C-42.37 10.67 -38.74 10.34 -35 10 C-35 9.01 -35 8.02 -35 7 C-33.2984375 6.7834375 -33.2984375 6.7834375 -31.5625 6.5625 C-28.19222799 6.38828522 -28.19222799 6.38828522 -27 5 C-24.54271378 4.42304594 -22.1033801 3.90626886 -19.625 3.4375 C-18.90634766 3.30110107 -18.18769531 3.16470215 -17.44726562 3.02416992 C-11.59685967 1.97842943 -5.94276842 1.6600535 0 2 C0 1.34 0 0.68 0 0 Z M18 133 C18 133.66 18 134.32 18 135 C15.03 135 12.06 135 9 135 C9 135.66 9 136.32 9 137 C7.9275 136.979375 6.855 136.95875 5.75 136.9375 C1.76354943 136.98092387 1.76354943 136.98092387 -2 138 C-2.33 138.66 -2.66 139.32 -3 140 C-3.99 140.33 -4.98 140.66 -6 141 C-6 141.66 -6 142.32 -6 143 C-8.31 143.33 -10.62 143.66 -13 144 C-13 144.66 -13 145.32 -13 146 C-13.66 146 -14.32 146 -15 146 C-15 146.66 -15 147.32 -15 148 C-16.32 148 -17.64 148 -19 148 C-20.3927289 149.61736259 -21.71937515 151.2925002 -23 153 C-23.9075 153.721875 -24.815 154.44375 -25.75 155.1875 C-26.4925 155.785625 -27.235 156.38375 -28 157 C-28 157.66 -28 158.32 -28 159 C-28.66 159 -29.32 159 -30 159 C-31.51839113 160.98768212 -31.51839113 160.98768212 -33 163.4375 C-35.7904328 167.8952164 -35.7904328 167.8952164 -38 169 C-38.65772428 172.02934491 -38.65772428 172.02934491 -39 175 C-39.66 175 -40.32 175 -41 175 C-41 176.65 -41 178.3 -41 180 C-41.66 180 -42.32 180 -43 180 C-45.44166784 186.83085645 -46.41640288 192.7515055 -46 200 C-46.66 200 -47.32 200 -48 200 C-48.02685095 202.47923801 -48.04676547 204.9581884 -48.0625 207.4375 C-48.07087891 208.14455078 -48.07925781 208.85160156 -48.08789062 209.58007812 C-48.09653588 211.38693559 -48.05220011 213.19387603 -48 215 C-47.67 215.33 -47.34 215.66 -47 216 C-46.87625 217.299375 -46.7525 218.59875 -46.625 219.9375 C-46.10971118 225.19175653 -44.65803716 230.00503272 -43 235 C-42.34 235 -41.68 235 -41 235 C-41 236.98 -41 238.96 -41 241 C-40.34 241 -39.68 241 -39 241 C-38.67 242.65 -38.34 244.3 -38 246 C-37.01 246 -36.02 246 -35 246 C-35 247.32 -35 248.64 -35 250 C-34.34 250 -33.68 250 -33 250 C-32.67 251.32 -32.34 252.64 -32 254 C-31.34 254 -30.68 254 -30 254 C-30 254.66 -30 255.32 -30 256 C-29.34 256 -28.68 256 -28 256 C-28 256.99 -28 257.98 -28 259 C-27.34 259 -26.68 259 -26 259 C-26 259.66 -26 260.32 -26 261 C-24.33720673 262.0064275 -22.67016516 263.00585407 -21 264 C-20.34 264.99 -19.68 265.98 -19 267 C-18.34 267 -17.68 267 -17 267 C-17 267.66 -17 268.32 -17 269 C-13.6828589 270.4216319 -10.55780196 271.39009109 -7 272 C-7 272.66 -7 273.32 -7 274 C-5.02 274.33 -3.04 274.66 -1 275 C-1 275.66 -1 276.32 -1 277 C0.4540625 277.185625 0.4540625 277.185625 1.9375 277.375 C2.948125 277.58125 3.95875 277.7875 5 278 C5.33 278.66 5.66 279.32 6 280 C10.09613517 280.94534833 14.0544911 281.1283319 18.24609375 281.1328125 C19.99696289 281.13474609 19.99696289 281.13474609 21.78320312 281.13671875 C22.98912109 281.13285156 24.19503906 281.12898437 25.4375 281.125 C26.63955078 281.12886719 27.84160156 281.13273438 29.08007812 281.13671875 C34.82052019 281.13038622 40.34941226 281.04856267 46 280 C46 279.34 46 278.68 46 278 C47.7015625 277.62875 47.7015625 277.62875 49.4375 277.25 C54.22541608 276.06800998 58.56069233 274.11689209 63 272 C63 271.34 63 270.68 63 270 C64.65 269.67 66.3 269.34 68 269 C68 268.34 68 267.68 68 267 C69.32 267 70.64 267 72 267 C72 266.01 72 265.02 72 264 C74 263 76 262 78 261 C78 260.34 78 259.68 78 259 C78.66 259 79.32 259 80 259 C81.66666667 257.66666667 81.66666667 257.66666667 83 256 C83 255.34 83 254.68 83 254 C83.66 254 84.32 254 85 254 C85.81837442 252.58671871 86.62946219 251.16921654 87.4375 249.75 C88.11619141 248.56664062 88.11619141 248.56664062 88.80859375 247.359375 C89.89311602 245.21166532 90.53148716 243.34794939 91 241 C91.66 241 92.32 241 93 241 C95.64472478 234.71724311 95.64472478 234.71724311 96 228 C96.66 228 97.32 228 98 228 C99.26262045 221.18585789 99.14732135 214.41217885 99.125 207.5 C99.12886719 206.30246094 99.13273438 205.10492188 99.13671875 203.87109375 C99.13037919 198.14647423 99.04415634 192.63512946 98 187 C97.34 187 96.68 187 96 187 C96.061875 186.34 96.12375 185.68 96.1875 185 C95.93182247 180.90915946 94.54304956 177.79333016 93 174 C92.34 174 91.68 174 91 174 C91 172.68 91 171.36 91 170 C89.66710346 168.49985609 89.66710346 168.49985609 88 167 C87.505 166.154375 87.01 165.30875 86.5 164.4375 C85.08195341 161.75281489 85.08195341 161.75281489 82 160 C80.8125 157.875 80.8125 157.875 80 156 C79.34 156 78.68 156 78 156 C78 155.34 78 154.68 78 154 C75.76530937 151.29484818 73.069454 149.65278292 70 148 C69.34 148 68.68 148 68 148 C68 147.34 68 146.68 68 146 C67.01 146 66.02 146 65 146 C65 145.34 65 144.68 65 144 C63.02 143.67 61.04 143.34 59 143 C59 142.34 59 141.68 59 141 C58.01 140.67 57.02 140.34 56 140 C55.505 139.01 55.505 139.01 55 138 C52.6833206 137.34767859 52.6833206 137.34767859 50 136.9375 C45.09433962 136.09433962 45.09433962 136.09433962 44 135 C42.48071962 134.92820036 40.95832518 134.91607993 39.4375 134.9375 C38.61121094 134.94652344 37.78492188 134.95554688 36.93359375 134.96484375 C35.97646484 134.98224609 35.97646484 134.98224609 35 135 C35 134.34 35 133.68 35 133 C29.39 133 23.78 133 18 133 Z " fill="#FE2300" transform="translate(230,54)"/>
</svg>
